<svg width="1200" height="630" viewBox="0 0 1200 630" fill="none" xmlns="http://www.w3.org/2000/svg">
  <rect width="1200" height="630" fill="#161422"/>
  <circle cx="1000" cy="118" r="180" fill="#7A65D8" fill-opacity="0.28"/>
  <circle cx="1096" cy="72" r="96" fill="#C8B9FF" fill-opacity="0.20"/>
  <circle cx="147" cy="534" r="170" fill="#7A65D8" fill-opacity="0.16"/>
  <rect x="68" y="68" width="1064" height="494" rx="32" fill="url(#panel)"/>
  <rect x="116" y="136" width="18" height="196" rx="9" fill="#C8B9FF"/>
  <path d="M156 136H261C312.915 136 355 178.085 355 230C355 281.915 312.915 324 261 324H156V136Z" fill="#7A65D8"/>
  <path d="M156 180H254C281.614 180 304 202.386 304 230C304 257.614 281.614 280 254 280H156V180Z" fill="#F6F1F7"/>
  <text x="416" y="204" fill="#C8B9FF" font-family="Arial, Helvetica, sans-serif" font-size="28" font-weight="700" letter-spacing="2">PRUMA IA</text>
  <text x="416" y="286" fill="#FFFFFF" font-family="Arial, Helvetica, sans-serif" font-size="58" font-weight="700">
    <tspan x="416" dy="0">Automacao inteligente</tspan>
    <tspan x="416" dy="72">para operacoes de PMEs</tspan>
  </text>
  <text x="416" y="430" fill="#D8D1E5" font-family="Arial, Helvetica, sans-serif" font-size="28" font-weight="400">
    <tspan x="416" dy="0">Menos trabalho manual. Menos retrabalho.</tspan>
    <tspan x="416" dy="44">Mais escala com controle.</tspan>
  </text>
  <defs>
    <linearGradient id="panel" x1="68" y1="68" x2="1132" y2="562" gradientUnits="userSpaceOnUse">
      <stop stop-color="#211C33"/>
      <stop offset="1" stop-color="#161422"/>
    </linearGradient>
  </defs>
</svg>
